# xmcd
#
# Track frame offsets: 
#        150
#        13301
#        23858
#        34439
#        47193
#        61141
#        72153
#        88040
#        102250
#        112330
#        122632
#        136441
#        146945
#        149705
#        166459
#
# Disc length: 2356 seconds
#
# Revision: 2
# Processed by: cddbd v1.5.2PL0 Copyright (c) Steve Scherf et al.
# Submitted via: ExactAudioCopyFreeDBPlugin 1.0
#
DISCID=ee09320f
DTITLE=Norma Jean - Loneliest Star In Texas
DYEAR=1900
DGENRE=Country
TTITLE0=Let's Go All The Way
TTITLE1=Loneliest Star In Texas
TTITLE2=Anita You're Dreaming
TTITLE3=Honky Tonk Hardwood Floor
TTITLE4=In The Middle Of A Heartache
TTITLE5=Before The Last Teardrop Dries
TTITLE6=Crying Over You
TTITLE7=Making Plans
TTITLE8=Ashes Of Love
TTITLE9=My Heart Skips A Beat
TTITLE10=Please Come Back With My Heart
TTITLE11=Good Morning
TTITLE12=Introduction To "Pretty Miss Norma Jean"
TTITLE13=Wanda Jackson - Pretty Miss Norma Jean
TTITLE14=Go Cat Go
EXTD=Pretty Miss Norma Jean\nwith Buck Trent and Wanda Jackson\nHeart 
EXTD=of Texas Music HOTR 111\nBrady, TX\nwww.hillbillyhits.com
EXTT0=
EXTT1=
EXTT2=
EXTT3=
EXTT4=
EXTT5=
EXTT6=
EXTT7=
EXTT8=
EXTT9=
EXTT10=
EXTT11=
EXTT12=
EXTT13=
EXTT14=
PLAYORDER=
